<svg id="Layer_1" data-name="Layer 1" xmlns="http://www.w3.org/2000/svg" viewBox="0 0 46.13 21.2"><defs><style>.cls-1{fill:#700016;}.cls-1,.cls-2{fill-rule:evenodd;}.cls-2{fill:#231f20;}</style></defs><title>EAS Logo</title><polygon class="cls-1" points="23.22 14.16 19.3 14.16 17.83 17.04 24.63 17.04 23.22 14.16"/><path class="cls-1" d="M0,0H19.46L17.77,3.42H3.45V9H15l-1.69,3.4H3.45v5.4h7.14L8.9,21.2H0V0"/><path class="cls-2" d="M29.56,17.8H40.11a2.75,2.75,0,0,0,.3-5.48H34.88a3.46,3.46,0,0,1-.46,0H34.3A6.14,6.14,0,0,1,34.88,0h4.9L38.3,3.42H34.75a2.75,2.75,0,0,0-.31,5.49h6.12A6.15,6.15,0,0,1,40,21.2H31.26Z"/><polygon class="cls-2" points="10.53 21.2 21.1 0 31.73 21.2 27.73 21.2 21.25 8.05 14.55 21.2 10.53 21.2"/><polygon class="cls-1" points="41.34 0.03 44.02 0.03 42.53 3.42 39.85 3.42 41.34 0.03"/></svg>